PathFileType	4	(X/Y/Z)	C:/Users/beibeiliu/ov580/test_trc/User3\sequence.7_training_dense_right.trc
DataRate	CameraRate	NumFrames	NumMarkers	Units	OrigDataRate	OrigDataStartFrame	OrigNumFrames
120	120	8	19	mm	120	176	200
Frame#	Time	ThumbCMC			ThumbMCP			ThumbIP			ThumbTip			IndexMCP			IndexPIP			IndexTip			MiddleMCP			MiddlePIP			MiddleTip			RingMCP			RingPIP			RingTip			PinkyMCP			PinkyPIP			PinkyTip			BackHand1			BackHand2			BackHand3	
		X0	Y0	Z0	X1	Y1	Z1	X2	Y2	Z2	X3	Y3	Z3	X4	Y4	Z4	X5	Y5	Z5	X6	Y6	Z6	X7	Y7	Z7	X8	Y8	Z8	X9	Y9	Z9	X10	Y10	Z10	X11	Y11	Z11	X12	Y12	Z12	X13	Y13	Z13	X14	Y14	Z14	X15	Y15	Z15	X16	Y16	Z16	X17	Y17	Z17	X18	Y18	Z18	
175	1.45833	51.9987	-20.1945	-14.3893	37.7276	-37.506	-38.81	25.4047	-51.3354	-61.4327	32.3608	-63.9324	-80.1327	57.456	1.678	-87.2502	47.6683	-5.26823	-117.066	43.3907	-32.527	-134.867	82.6042	8.72457	-91.926	80.0374	2.1559	-127.867	82.9658	-25.1302	-145.475	106.264	2.86166	-86.8436	107.458	-4.41297	-116.662	107.245	-29.0352	-130.328	129.903	-11.9175	-75.4724	133.726	-21.3891	-97.4998	136.768	-42.2795	-113.259	109.468	7.72567	-35.1671	109.609	6.90472	-6.71263	76.8712	10.7691	-22.75	
176	1.46667	45.3705	-30.1028	-10.3022	33.2948	-54.8275	-28.6643	22.3604	-77.5469	-47.4024	32.2123	-93.4397	-63.1857	48.5077	-30.8368	-89.878	36.9835	-47.987	-112.822	36.3948	-74.7003	-122.414	72.9888	-22.7387	-98.104	70.2062	-39.2547	-125.508	75.2393	-71.8044	-137.245	91.4847	-24.0845	-90.2059	94.9378	-37.1169	-113.145	100.247	-71.1	-121.981	118.835	-31.3472	-72.8276	130.057	-45.8558	-89.6586	132.086	-70.3531	-99.2948	96.6154	-6.22139	-44.9852	99.1947	5.83079	-13.6428	64.8458	-2.92879	-27.5645	
177	1.475	40.8207	-36.4649	-1.55702	29.1937	-66.6539	-11.2205	24.1754	-92.2572	-27.4116	23.8776	-115.762	-34.9872	38.456	-58.8851	-78.5534	34.5034	-84.1255	-97.71	32.2637	-110.714	-99.0694	68.4619	-52.252	-86.864	61.9612	-78.4182	-111.831	66.5726	-115.323	-114.228	91.6312	-52.3169	-81.0861	92.7386	-73.4292	-101.836	92.8146	-106.157	-99.8401	115.612	-55.3415	-62.6049	119.453	-73.2917	-78.7769	118.286	-103.354	-79.4428	91.2493	-19.2496	-40.562	97.4341	-2.42113	-17.8236	59.721	-11.8583	-26.9365	
178	1.48333	43.7181	-35.2586	3.5667	26.38	-68.2452	-0.647818	11.8513	-93.0247	-4.45929	12.567	-117.59	-10.8386	34.8751	-70.4207	-63.8154	24.3827	-96.9208	-79.553	18.072	-127.228	-73.9987	61.567	-72.9089	-75.5059	53.4079	-99.2357	-93.3301	50.9045	-139.091	-83.0166	81.8956	-75.6445	-71.6309	84.434	-100.932	-84.3327	79.4158	-130.174	-72.8019	105.15	-76.4521	-51.6102	107.956	-100.337	-63.668	104.85	-126.973	-55.8596	91.2523	-37.2778	-37.7016	101.678	-16.3346	-20.69	65.3413	-22.6548	-26.1268	
179	1.49167	45.322	-28.1846	4.8171	25.1702	-52.6476	7.68887	6.22851	-71.6422	7.55402	-1.65891	-96.9098	4.11611	29.6777	-70.1187	-60.4051	7.55245	-89.9015	-67.2948	0.16611	-114.601	-58.6918	53.1276	-77.6489	-65.8968	39.788	-105.231	-78.6917	25.415	-135.149	-59.8609	74.0519	-87.7288	-59.4792	59.0225	-113.954	-67.9826	47.4112	-136.144	-46.3087	90.0341	-94.603	-43.0981	83.9948	-116.83	-47.8232	69.7402	-137.923	-30.2319	94.5596	-49.2649	-32.0249	109.487	-29.4376	-15.6922	71.3849	-23.2523	-24.4418	
180	1.5	58.432	-11.9753	3.18328	28.0894	-21.0096	8.31361	-0.585702	-32.7923	5.27573	-20.0725	-50.6507	6.65802	28.9931	-48.7144	-55.3966	-1.08329	-63.4698	-66.8819	-24.8904	-74.8212	-53.3631	39.9035	-70.234	-62.0487	13.7493	-87.3963	-69.6489	-9.08095	-104.892	-44.9681	52.8895	-82.0062	-50.5357	29.4012	-107.211	-54.1692	11.3237	-113.824	-32.4692	69.4152	-95.8415	-29.5558	49.7853	-117.241	-31.4178	30.1575	-121.419	-9.85429	90.6012	-59.6857	-30.9894	115.107	-42.1183	-13.3399	83.5996	-22.2058	-25.5671	
181	1.50833	73.5021	-1.01453	-3.87182	41.9206	6.24416	-2.83443	15.5058	10.8744	-4.52992	-9.67912	1.25159	-5.14662	33.7947	-26.9776	-61.4096	2.01782	-27.6246	-73.5075	-23.214	-26.4576	-62.877	35.0502	-56.2311	-59.8569	1.94699	-60.2826	-69.3701	-29.6161	-54.7682	-47.2068	38.9431	-74.4426	-44.9873	6.82011	-81.5406	-48.7774	-15.8541	-70.6222	-30.73	41.5611	-89.9742	-21.8669	15.4041	-93.7665	-19.8101	-3.70576	-85.7658	-5.08789	84.1206	-58.7391	-25.3028	107.572	-56.0874	-10.0918	92.0965	-28.3196	-24.1876	
182	1.51667	87.9051	0.735246	-7.0008	62.9963	17.3556	-9.03761	35.4048	35.8926	-20.5668	10.0528	37.0051	-21.9832	42.1165	-15.3883	-69.5696	16.7978	-6.32292	-83.2991	-7.10948	5.63689	-78.1238	32.6014	-41.3575	-61.5916	2.48533	-37.2751	-74.1564	-28.9321	-13.2691	-60.9878	27.8397	-55.8353	-45.1702	-6.07624	-52.984	-52.417	-26.2813	-34.5302	-34.7532	18.7342	-70.6904	-19.9347	-5.75236	-62.433	-19.0932	-21.6444	-46.1498	-9.0289	69.6382	-62.5414	-23.8136	92.8197	-67.8321	0.721061	94.3379	-35.9133	-24.8599	
